<?xml version="1.0" encoding="UTF-8" standalone="no"?>
<!-- Created with Inkscape (http://www.inkscape.org/) -->

<svg
   width="17.854313mm"
   height="15.410596mm"
   viewBox="0 0 17.854313 15.410595"
   version="1.1"
   id="svg5"
   inkscape:version="1.1.1 (3bf5ae0d25, 2021-09-20)"
   sodipodi:docname="Pikachuicon.svg"
   xmlns:inkscape="http://www.inkscape.org/namespaces/inkscape"
   xmlns:sodipodi="http://sodipodi.sourceforge.net/DTD/sodipodi-0.dtd"
   xmlns="http://www.w3.org/2000/svg"
   xmlns:svg="http://www.w3.org/2000/svg">
  <sodipodi:namedview
     id="namedview7"
     pagecolor="#ffffff"
     bordercolor="#999999"
     borderopacity="1"
     inkscape:pageshadow="0"
     inkscape:pageopacity="0"
     inkscape:pagecheckerboard="0"
     inkscape:document-units="mm"
     showgrid="false"
     fit-margin-top="0.1"
     fit-margin-left="0.1"
     fit-margin-right="0.1"
     fit-margin-bottom="0.1"
     inkscape:zoom="5.5731762"
     inkscape:cx="20.813984"
     inkscape:cy="17.853374"
     inkscape:window-width="1920"
     inkscape:window-height="991"
     inkscape:window-x="-9"
     inkscape:window-y="-9"
     inkscape:window-maximized="1"
     inkscape:current-layer="layer1" />
  <defs
     id="defs2" />
  <g
     inkscape:label="Capa 1"
     inkscape:groupmode="layer"
     id="layer1"
     transform="translate(-156.70581,-116.81071)">
    <g
       id="g3086">
      <path
         id="path910"
         style="fill:#636363;stroke-width:0.323744;stroke-linecap:round"
         d="m 171.3352,127.7774 c 0,2.76614 -2.57186,4.34391 -5.7444,4.34391 -3.17255,0 -5.74441,-1.57776 -5.74441,-4.34391 0,-2.76615 2.57186,-5.00855 5.74441,-5.00855 3.17254,0 5.7444,2.24241 5.7444,5.00855 z"
         sodipodi:nodetypes="sssss" />
      <path
         id="path1311"
         style="fill:#636363;stroke-width:0.455403;stroke-linecap:round"
         d="m 171.88286,122.70711 c -2.02558,2.688 -4.18647,4.47607 -4.82646,3.99379 -0.63999,-0.4823 0.48325,-3.0523 2.50883,-5.74028 2.02558,-2.68798 4.12758,-4.3859 4.82646,-3.99379 0.32109,0.18015 -0.48324,3.05229 -2.50883,5.74028 z"
         sodipodi:nodetypes="sssss" />
      <path
         id="path3081"
         style="fill:#636363;stroke-width:0.455403;stroke-linecap:round"
         d="m 159.38307,122.70711 c 2.02558,2.688 4.18647,4.47607 4.82646,3.99379 0.63999,-0.4823 -0.48325,-3.0523 -2.50883,-5.74028 -2.02558,-2.68798 -4.12758,-4.3859 -4.82646,-3.99379 -0.32109,0.18015 0.48324,3.05229 2.50883,5.74028 z"
         sodipodi:nodetypes="sssss" />
    </g>
  </g>
</svg>
